Coordinates																		
version=1																		
nRows=73																		
nColumns=19																		
inDegrees=yes																		
																		
"Units are S.I. units (second, meters, Newtons, ...)"																		
"If the header above contains a line with 'inDegrees', this indicates whether rotational values are in degrees (yes) or radians (no)."																		
																		
endheader																		
time	pelvis_tilt_global	pelvis_list_global	pelvis_rotation_global	pelvis_tx_global	pelvis_ty_global	pelvis_tz_global	pelvis_tilt	pelvis_rotation	hip_flexion_r	hip_flexion_l	hip_adduction_r	hip_adduction_l	hip_rotation_r	hip_rotation_l	knee_flexion_r	knee_flexion_l	ankle_dorsiflexion_r	ankle_dorsiflexion_l
0.4	2.40870654	0	0	0.60146911	0.61506422	0	-16.8797351	0	20.16323127	-5.79549243	0	0	0	0	-55.18730856	-7.33535694	2.73637463	5.39710797
0.417	2.403705685	0	0	0.59876428	0.61418473	0	-17.19702494	0	20.63387013	-7.28440892	0	0	0	0	-50.31535853	-6.33404953	2.7472313	5.62863786
0.433	2.35831546	0	0	0.59649831	0.61260688	0	-17.21738661	0	20.96628697	-8.72478157	0	0	0	0	-44.98985076	-5.3167808	2.64343298	5.88912383
0.45	2.42046263	0	0	0.59435842	0.61088889	0	-17.45156123	0	20.78903614	-10.30761725	0	0	0	0	-39.2013406	-4.47841451	2.37092498	6.24166928
0.467	2.35264803	0	0	0.5918552	0.6082929	0	-17.40170009	0	20.7798154	-11.49059775	0	0	0	0	-33.1576252	-3.84790562	1.94532109	6.64969224
0.483	2.319082915	0	0	0.59054707	0.60586969	0	-17.37729391	0	20.17300853	-12.96257351	0	0	0	0	-26.49001002	-2.9398077	1.39318234	6.9878691
0.5	2.249454705	0	0	0.58954512	0.60282511	0	-17.2219539	0	19.64774636	-14.38123778	0	0	0	0	-19.896284	-2.07650312	0.91078464	7.3261432
0.517	2.177910265	0	0	0.58825179	0.5992762	0	-17.10730661	0	19.16114122	-15.66585779	0	0	0	0	-13.68136495	-1.46152018	0.62807694	7.75051873
0.533	2.093144795	0	0	0.58722041	0.59535838	0	-16.93857858	0	18.6821211	-16.80471433	0	0	0	0	-8.10851422	-1.13023352	0.6415855	8.31867189
0.55	2.05148327	0	0	0.58676099	0.59137934	0	-16.81460888	0	18.23801453	-18.10694678	0	0	0	0	-3.47706281	-0.73637822	0.88523297	8.77389725
0.567	2.0127491	0	0	0.5858856	0.58745382	0	-16.73331046	0	18.16440806	-19.1877848	0	0	0	0	-0.50872194	-0.77348927	1.39074466	9.4010042
0.583	1.938261055	0	0	0.58428064	0.58397722	0	-16.83791538	0	18.3168244	-19.74324728	0	0	0	0	0.99247428	-1.63812655	1.70933037	10.27956803
0.6	1.93405009	0	0	0.58493964	0.58125686	0	-16.70572859	0	18.56859884	-20.67645081	0	0	0	0	0.87268729	-2.257528	1.92047506	10.82940276
0.617	1.886689355	0	0	0.58553698	0.5789247	0	-16.6105797	0	19.21856501	-21.17700917	0	0	0	0	-0.84110332	-3.50507673	1.66191835	11.54983425
0.633	1.86797993	0	0	0.58648845	0.57738023	0	-16.58701603	0	19.92889519	-21.55239449	0	0	0	0	-3.58306007	-5.08532977	1.01531813	12.03659666
0.65	1.805514395	0	0	0.5879768	0.57611505	0	-16.37634728	0	20.73920361	-21.72571064	0	0	0	0	-6.78401271	-6.87806066	0.00826946	12.34978494
0.667	1.733656495	0	0	0.58993813	0.57553052	0	-16.07946645	0	21.44962784	-21.66603511	0	0	0	0	-9.97867763	-9.09424421	-1.09057475	12.35009217
0.683	1.771745315	0	0	0.5916158	0.57570519	0	-15.9834662	0	22.06741464	-21.4672716	0	0	0	0	-13.53822025	-11.97663313	-1.69656234	12.06273612
0.7	1.910259375	0	0	0.59500261	0.57698559	0	-16.11066131	0	22.11183484	-21.20420792	0	0	0	0	-16.80580359	-15.43707124	-1.73297012	11.27932942
0.717	2.050756775	0	0	0.59805327	0.57877575	0	-16.1175483	0	21.67005587	-20.33311836	0	0	0	0	-19.15270944	-19.8812809	-1.61724469	10.01895041
0.733	2.101447585	0	0	0.60028679	0.58032207	0	-16.00417902	0	21.34009087	-18.32187917	0	0	0	0	-21.30551046	-25.84635694	-1.15153742	8.26624039
0.75	2.149512235	0	0	0.60293341	0.58226213	0	-15.85211807	0	20.53823873	-15.89824746	0	0	0	0	-22.61986887	-32.14924789	-0.4769722	5.48975595
0.767	2.111734795	0	0	0.60486035	0.58402186	0	-15.60803885	0	19.76655304	-12.72118918	0	0	0	0	-23.60166005	-38.88940743	0.51694087	1.86808458
0.783	2.079681955	0	0	0.60542631	0.58579051	0	-15.45327698	0	18.74073487	-9.29378551	0	0	0	0	-23.90412484	-45.38882448	1.43682988	-2.03430219
0.8	2.09005642	0	0	0.60595259	0.58756723	0	-15.36575137	0	17.58077296	-5.97748518	0	0	0	0	-24.0577072	-51.33433694	2.50798106	-5.41945433
0.817	2.132243845	0	0	0.60619924	0.58996876	0	-15.20771271	0	15.98984728	-2.96726524	0	0	0	0	-23.44875018	-56.32301832	3.34509163	-7.40786371
0.833	2.183939205	0	0	0.60599275	0.59274006	0	-15.22585175	0	14.38732559	-0.15939525	0	0	0	0	-22.82333216	-60.5015004	4.16747251	-7.78985196
0.85	2.24329083	0	0	0.60561796	0.59585818	0	-15.37474937	0	12.58015521	2.44138103	0	0	0	0	-21.77149068	-63.865174	4.77010669	-6.87914891
0.867	2.336213615	0	0	0.60519105	0.59920966	0	-15.4850038	0	10.74131766	4.76890307	0	0	0	0	-20.83885006	-66.33402107	5.3571922	-5.38717361
0.883	2.34340157	0	0	0.60415921	0.60243742	0	-15.55211932	0	8.90860772	7.21784984	0	0	0	0	-19.47713103	-68.02232905	5.74881225	-3.85984046
0.9	2.42753434	0	0	0.60334726	0.60561101	0	-15.79781376	0	6.93421747	9.28527227	0	0	0	0	-18.18412059	-68.87194548	6.12629513	-2.52516869
0.917	2.444465865	0	0	0.60198664	0.60829356	0	-15.84506801	0	5.12462548	11.38041372	0	0	0	0	-16.85486781	-68.92268018	6.41178878	-1.45200182
0.933	2.46075571	0	0	0.6009498	0.61078538	0	-15.92785224	0	3.21401037	13.22154277	0	0	0	0	-15.33346368	-68.10141176	6.58417127	-0.64256811
0.95	2.374670635	0	0	0.59846085	0.61210245	0	-15.88150193	0	2.02177166	15.11003644	0	0	0	0	-14.59439421	-66.59332345	7.029368	-0.01404749
0.967	2.29399973	0	0	0.59625231	0.6129828	0	-15.8570047	0	0.69031691	16.86052302	0	0	0	0	-13.61905677	-64.42918039	7.33398631	0.50279784
0.983	2.397465945	0	0	0.59553743	0.61416396	0	-16.07282226	0	-1.27795769	17.76543083	0	0	0	0	-12.33349929	-61.39540517	7.54161972	1.0623401
1	2.439665555	0	0	0.59298606	0.61456168	0	-16.43708998	0	-2.71266245	18.74388331	0	0	0	0	-11.64817051	-57.77277697	7.96596194	1.43228878
1.017	2.46785452	0	0	0.59107976	0.61449532	0	-16.58171628	0	-4.18834926	19.4297483	0	0	0	0	-10.89348199	-53.51196087	8.35994536	1.6734766
1.033	2.477458735	0	0	0.58911666	0.61396621	0	-16.71617833	0	-5.71386764	19.9490433	0	0	0	0	-9.96589826	-48.75309469	8.67277685	1.62652413
1.05	2.54745041	0	0	0.58716308	0.61329653	0	-17.04562628	0	-7.33529979	20.0939376	0	0	0	0	-9.1240676	-43.47873864	8.97028943	1.2680068
1.067	2.48467618	0	0	0.58506467	0.6115996	0	-16.90170696	0	-8.59547432	20.36268527	0	0	0	0	-8.42127138	-37.97067572	9.29451396	0.73223274
1.083	2.44402383	0	0	0.58336405	0.60967831	0	-16.96776618	0	-9.96190989	20.30613486	0	0	0	0	-7.69098732	-32.06275211	9.67865751	-0.03307238
1.1	2.376105085	0	0	0.58209477	0.60725673	0	-16.83198795	0	-11.38799369	20.28468956	0	0	0	0	-6.80745626	-26.32450892	9.94413637	-0.71563701
1.117	2.27522561	0	0	0.58080255	0.60445774	0	-16.73212113	0	-12.58471523	20.18829991	0	0	0	0	-6.29507015	-20.50404182	10.41583738	-1.32620945
1.133	2.20306508	0	0	0.57924174	0.60138866	0	-16.70826801	0	-13.71981397	20.03529644	0	0	0	0	-6.03034336	-15.09705654	10.96401646	-1.62936743
1.15	2.231795015	0	0	0.57844117	0.5984737	0	-16.80852604	0	-15.12688657	19.50350392	0	0	0	0	-5.72241892	-9.91134647	11.46003862	-1.73833124
1.167	2.21373731	0	0	0.57806002	0.59518753	0	-16.91732722	0	-16.50384029	19.13730242	0	0	0	0	-5.33690312	-5.68841906	11.89707609	-1.52026556
1.183	2.272313635	0	0	0.57751133	0.59230076	0	-17.03620589	0	-17.78641676	18.68611073	0	0	0	0	-5.46045742	-2.58649829	12.42724771	-1.11938598
1.2	2.218601075	0	0	0.57780789	0.58926737	0	-16.92756685	0	-18.902692	18.6081907	0	0	0	0	-5.47417768	-0.71905747	12.80816966	-0.75749562
1.217	2.283970255	0	0	0.5773871	0.58703781	0	-17.15663865	0	-19.84595866	18.66667787	0	0	0	0	-6.23872261	-0.58029452	13.29404051	-0.42661676
1.233	2.3233256	0	0	0.57769392	0.58517726	0	-17.19053219	0	-20.60724929	18.82965788	0	0	0	0	-7.26205245	-1.58572189	13.73116562	-0.42494636
1.25	2.29043244	0	0	0.57916879	0.58374181	0	-16.94833033	0	-21.0807296	19.10065218	0	0	0	0	-8.64124179	-3.46192055	14.03027155	-0.79356762
1.267	2.217271445	0	0	0.58130021	0.58239224	0	-16.48158716	0	-21.25921886	19.66008837	0	0	0	0	-10.45505495	-6.04041422	14.25633772	-1.55981579
1.283	2.107541605	0	0	0.582235	0.58141057	0	-16.25057847	0	-20.89492608	20.22937823	0	0	0	0	-13.07732767	-8.61332446	14.28254916	-2.67210316
1.3	2.052554925	0	0	0.58474044	0.58119859	0	-15.86954622	0	-20.69172834	20.57310765	0	0	0	0	-15.61868682	-11.26130297	13.78601103	-3.51984582
1.317	2.113107105	0	0	0.58774329	0.58182485	0	-15.68901312	0	-20.17783741	20.5026631	0	0	0	0	-19.17307069	-13.70105461	12.98459457	-4.03604314
1.333	2.214350495	0	0	0.59091519	0.58299168	0	-15.53783941	0	-19.23819692	20.17518916	0	0	0	0	-23.53823716	-15.89926923	11.59943099	-4.13119617
1.35	2.43752295	0	0	0.59424414	0.58492046	0	-15.60827025	0	-18.0105335	19.34488654	0	0	0	0	-28.63746601	-17.70120405	9.32360027	-3.86148001
1.367	2.58136261	0	0	0.59728406	0.58677125	0	-15.55784843	0	-16.00715543	18.46357689	0	0	0	0	-34.43969595	-19.06502374	6.01738485	-3.31805303
1.383	2.668134365	0	0	0.59967096	0.58854651	0	-15.50585558	0	-13.34438444	17.43358449	0	0	0	0	-40.62577631	-19.89001845	1.8266484	-2.5877221
1.4	2.70338071	0	0	0.60130011	0.59025268	0	-15.30477883	0	-10.35025095	16.41791517	0	0	0	0	-46.56690517	-20.47837938	-2.72844547	-1.6452306
1.417	2.81586536	0	0	0.60262432	0.59271342	0	-15.42848203	0	-7.55849499	14.86761726	0	0	0	0	-51.81768276	-20.32442184	-6.65932044	-0.77333432
1.433	2.90120353	0	0	0.60246308	0.59496008	0	-15.5442068	0	-4.53858791	13.31228378	0	0	0	0	-56.79095848	-19.88722634	-8.75567898	0.02236034
1.45	2.980859155	0	0	0.60197192	0.5975626	0	-15.57028136	0	-1.65072685	11.72751959	0	0	0	0	-61.0598578	-19.35878837	-8.87993808	0.80110056
1.467	3.00424004	0	0	0.60242016	0.60084417	0	-15.54816664	0	0.7853328	10.08996004	0	0	0	0	-64.17451374	-18.61724739	-7.57698634	1.51054746
1.483	3.109688285	0	0	0.60152616	0.60419933	0	-15.71822364	0	3.19136055	8.16904952	0	0	0	0	-66.82935664	-17.50448357	-5.50206862	1.99251476
1.5	3.08052182	0	0	0.60040311	0.6068907	0	-15.73964706	0	5.68816827	6.67958322	0	0	0	0	-68.65121269	-16.65037209	-3.37220885	2.55135568
1.517	3.09542694	0	0	0.59908813	0.60952972	0	-15.8081545	0	7.91444865	4.9621786	0	0	0	0	-69.60763982	-15.48992116	-1.5606356	2.97463379
1.533	3.113177785	0	0	0.59786643	0.61185321	0	-15.90316506	0	9.99921492	3.1621432	0	0	0	0	-69.75588403	-14.17793232	-0.19894242	3.32828637
1.55	3.019338305	0	0	0.59550862	0.61296336	0	-15.85373802	0	12.3979643	1.8281445	0	0	0	0	-69.40529938	-13.1754494	0.7892001	3.73980073
1.567	3.02404551	0	0	0.59413889	0.6143779	0	-15.93296574	0	14.07422727	0.16717893	0	0	0	0	-67.92850382	-12.03988618	1.38988572	4.1774215
1.583	2.989426835	0	0	0.59213015	0.61499497	0	-15.97870132	0	15.82311013	-1.27246904	0	0	0	0	-65.89677903	-11.11751529	1.78777923	4.67426661
1.6	2.98256484	0	0	0.59095793	0.61539481	0	-16.03332119	0	17.22246958	-2.99510181	0	0	0	0	-63.08187299	-9.84545191	2.06014803	5.06556438
